<?xml version="1.0" encoding="UTF-8" ?>
<!DOCTYPE svg PUBLIC "-//W3C//DTD SVG 1.1//EN" "http://www.w3.org/Graphics/SVG/1.1/DTD/svg11.dtd">
<svg width="1416pt" height="824pt" viewBox="0 0 1416 824" version="1.1" xmlns="http://www.w3.org/2000/svg">
<g id="#ffffffff">
<path fill="#ffffff" opacity="1.00" d=" M 0.00 0.00 L 1416.00 0.00 L 1416.00 824.00 L 0.00 824.00 L 0.00 0.00 M 441.19 209.89 C 440.61 217.21 441.75 224.63 440.31 231.87 C 438.52 241.12 438.62 250.67 439.94 259.97 C 440.88 269.30 442.72 278.64 441.88 288.04 C 440.45 294.62 436.64 300.52 436.31 307.38 C 430.50 307.19 424.70 307.48 418.91 307.79 C 417.01 308.60 414.93 308.61 412.93 308.80 C 411.35 309.50 409.63 309.64 407.94 309.82 C 405.64 310.65 403.29 311.26 400.95 311.93 C 399.63 312.44 398.30 312.90 396.99 313.40 C 395.58 313.84 394.18 314.32 392.79 314.80 C 391.23 315.68 389.54 316.28 387.87 316.90 C 365.94 327.27 346.81 344.92 337.64 367.68 C 333.62 378.23 330.35 389.87 332.95 401.17 C 337.23 390.75 340.16 379.73 345.95 369.99 C 355.78 352.20 372.15 338.47 390.85 330.75 C 392.26 330.27 393.67 329.77 395.10 329.30 C 396.34 328.76 397.61 328.26 398.85 327.68 C 399.41 327.59 400.53 327.41 401.08 327.32 C 402.69 326.79 404.33 326.34 405.95 325.86 C 407.32 325.58 408.81 325.56 410.04 324.81 C 414.66 324.09 419.43 323.89 423.94 322.77 C 427.67 322.52 431.41 322.60 435.14 322.46 C 431.77 336.65 432.10 351.47 427.94 365.51 C 412.27 367.87 398.02 377.07 388.94 390.00 C 379.54 403.47 376.69 420.04 373.62 435.83 C 370.70 440.50 365.90 443.63 361.03 446.03 C 357.09 448.21 352.17 449.34 349.71 453.47 C 347.25 459.14 348.86 465.39 348.58 471.34 C 345.79 472.24 342.77 472.18 340.07 473.31 C 339.56 473.37 338.54 473.47 338.03 473.53 C 338.67 468.96 339.80 464.37 339.52 459.76 C 337.65 459.66 335.79 459.51 333.94 459.27 C 332.46 458.35 330.64 458.53 329.00 458.24 C 327.80 457.45 326.33 457.49 324.99 457.22 C 324.15 456.87 323.30 456.56 322.44 456.28 C 321.09 457.56 319.98 459.57 317.94 459.75 C 315.26 459.88 312.85 458.19 310.16 458.36 C 307.68 458.50 305.36 459.43 303.04 460.21 C 296.48 462.36 290.03 467.63 289.24 474.87 C 288.73 482.26 288.06 490.02 290.87 497.07 C 292.17 500.62 294.48 503.64 296.64 506.70 C 296.71 504.42 296.75 502.14 296.78 499.87 C 300.35 503.15 304.32 505.99 308.60 508.28 C 315.63 509.43 322.89 511.36 329.99 509.82 C 333.07 509.51 336.14 509.07 339.11 508.13 C 337.81 507.66 336.76 506.74 335.98 505.63 C 337.98 505.14 339.99 504.62 341.97 504.02 C 343.25 503.47 344.65 503.33 346.02 503.09 C 347.60 502.38 349.35 502.35 351.05 502.15 C 358.33 500.14 365.75 502.63 373.11 502.59 C 381.72 503.31 390.34 502.27 398.96 502.38 C 401.27 502.32 403.66 502.60 405.89 501.81 C 412.24 501.10 418.68 501.80 424.99 500.60 C 443.33 499.96 461.70 500.42 480.06 500.41 C 486.28 500.76 492.32 498.82 498.55 499.32 C 498.53 498.91 498.48 498.11 498.45 497.71 C 496.91 497.28 495.41 496.75 493.92 496.20 C 488.93 494.16 483.48 493.95 478.27 492.91 C 480.22 492.34 482.12 491.59 483.92 490.63 C 491.19 487.37 497.67 482.65 504.24 478.20 C 504.56 477.86 505.21 477.19 505.53 476.86 C 504.50 484.13 501.88 491.18 502.02 498.61 C 503.65 498.64 505.31 498.63 506.87 499.21 C 518.62 499.33 530.37 499.52 542.12 499.34 C 543.70 498.10 546.03 497.44 546.58 495.27 C 545.52 494.47 544.10 494.51 542.90 494.15 C 541.30 493.53 539.58 493.42 537.91 493.24 C 534.21 492.01 529.93 491.87 527.00 488.98 C 519.66 482.15 517.68 471.58 517.54 461.98 C 518.42 459.28 520.14 456.97 521.34 454.41 C 528.23 440.01 531.33 423.95 531.30 408.04 C 530.70 395.65 530.08 382.73 524.55 371.37 C 513.87 346.85 494.48 326.13 470.15 314.81 C 468.43 314.30 466.75 313.69 465.18 312.84 C 463.58 312.27 461.94 311.77 460.30 311.37 C 459.73 307.25 460.10 303.10 459.96 298.96 C 459.34 285.84 456.57 272.95 454.85 259.96 C 455.65 255.12 458.66 250.93 459.67 246.11 C 457.31 243.52 454.73 241.15 452.38 238.56 C 448.51 234.32 448.42 228.27 447.13 222.99 C 446.20 218.23 444.32 213.64 441.19 209.89 M 596.46 368.53 C 591.69 373.05 587.51 379.32 588.02 386.15 C 588.22 389.58 591.32 391.67 593.89 393.43 C 596.53 393.40 599.35 394.04 601.83 392.85 C 609.46 388.69 615.45 379.88 613.99 370.94 C 613.66 368.26 611.51 366.13 609.08 365.19 C 604.69 363.43 599.59 365.18 596.46 368.53 M 1033.90 364.66 C 1026.35 367.90 1021.14 375.22 1019.35 383.09 C 1018.32 387.65 1021.74 391.78 1025.72 393.51 C 1028.53 393.52 1031.54 393.91 1034.07 392.39 C 1040.93 388.04 1046.33 380.33 1045.75 371.94 C 1045.48 368.29 1042.36 365.91 1039.25 364.57 C 1037.45 364.58 1035.67 364.61 1033.90 364.66 M 787.02 393.73 C 785.80 394.60 784.24 394.47 782.85 394.73 C 779.91 395.95 776.82 396.72 773.84 397.80 C 772.60 398.33 771.33 398.83 770.10 399.35 C 767.33 400.36 764.69 401.71 761.93 402.73 C 761.11 403.28 760.29 403.81 759.47 404.33 C 757.83 405.05 756.25 405.87 754.67 406.71 C 740.06 415.19 726.71 425.80 714.99 437.96 C 711.64 441.44 708.84 445.52 707.27 450.11 C 706.15 452.88 705.38 456.11 702.79 457.93 C 696.16 463.05 689.65 468.55 681.94 472.01 C 679.72 473.07 677.19 472.65 674.83 472.49 C 672.16 469.81 672.46 465.75 673.64 462.44 C 676.64 453.69 682.75 446.56 688.38 439.40 C 692.60 433.72 698.48 429.27 701.64 422.82 C 703.07 416.07 700.92 409.11 697.52 403.27 C 694.88 403.34 692.24 403.62 689.85 404.78 C 687.07 406.30 684.42 408.00 681.81 409.78 C 663.03 422.28 647.39 438.82 632.91 455.96 C 630.20 458.79 627.44 462.49 623.16 462.60 C 621.32 455.36 626.34 449.48 630.18 443.99 C 635.49 436.77 641.75 430.33 647.54 423.50 C 649.51 421.17 651.70 418.30 650.78 415.04 C 649.80 413.28 647.78 412.60 646.16 411.62 C 641.71 411.21 636.95 411.38 633.20 414.10 C 626.82 419.13 621.62 425.48 617.07 432.17 C 613.42 437.60 609.50 442.93 606.91 448.98 C 605.51 451.86 604.46 454.98 602.46 457.53 C 599.06 461.38 594.66 464.13 590.57 467.18 C 588.63 468.35 586.72 469.58 584.77 470.75 C 584.28 470.99 583.31 471.49 582.82 471.74 C 581.61 472.28 580.39 472.77 579.19 473.30 C 574.80 474.50 570.28 474.90 565.93 473.28 C 563.47 471.79 560.96 469.90 560.00 467.08 C 557.91 462.04 559.86 456.21 563.17 452.17 C 569.70 444.09 578.41 437.97 584.19 429.26 C 587.71 423.93 591.26 418.40 592.75 412.12 C 593.41 409.82 592.72 407.53 591.54 405.56 C 589.44 404.63 587.18 404.18 584.98 403.58 C 582.41 404.82 579.41 404.35 576.85 405.71 C 571.25 408.47 566.31 412.52 562.33 417.32 C 555.77 424.32 550.45 432.39 545.77 440.74 C 538.84 453.32 539.44 468.73 544.00 482.01 C 546.24 488.47 550.05 495.40 556.95 497.69 C 559.77 499.01 563.00 498.28 566.01 498.26 C 567.31 497.68 568.64 497.19 569.98 496.71 C 583.94 490.80 594.16 478.97 603.82 467.72 C 605.14 477.49 607.89 487.65 615.42 494.55 C 615.41 494.36 615.39 493.98 615.38 493.79 C 622.24 489.57 627.02 482.94 631.70 476.56 C 642.37 462.38 654.07 448.64 668.51 438.16 C 670.36 437.00 672.13 435.72 673.79 434.30 C 667.30 447.10 659.12 458.98 653.02 471.98 C 650.45 478.38 649.08 485.78 651.49 492.44 C 652.74 495.95 655.97 499.18 659.97 498.71 C 667.18 499.38 672.93 494.35 678.23 490.24 C 686.39 483.79 693.57 476.24 701.30 469.31 C 702.54 467.92 703.81 466.50 705.61 465.83 C 707.39 475.63 711.09 485.54 718.17 492.76 C 720.34 494.62 722.72 497.35 725.94 496.52 C 732.16 495.22 736.65 490.29 741.27 486.28 C 750.94 476.86 759.79 466.65 769.11 456.88 C 766.14 468.41 760.80 479.87 762.34 492.07 C 762.58 495.53 764.74 498.35 767.39 500.43 C 770.30 500.60 773.23 500.58 776.16 500.31 C 792.77 493.35 804.74 479.27 817.17 466.79 C 818.73 476.30 820.17 487.49 828.85 493.37 C 829.74 493.39 831.52 493.43 832.42 493.45 C 835.03 491.03 837.60 488.52 839.61 485.56 C 845.88 476.65 852.42 467.90 859.93 460.00 C 866.24 453.31 872.11 446.16 879.11 440.16 C 880.75 439.22 882.41 438.33 884.01 437.29 C 885.49 437.46 886.88 438.29 887.10 439.90 C 887.02 442.88 885.26 445.43 883.89 447.96 C 877.76 458.93 870.89 469.60 866.66 481.50 C 865.06 486.36 865.79 492.79 870.77 495.40 C 871.60 495.36 873.27 495.29 874.11 495.26 C 883.17 493.05 888.32 484.72 894.35 478.37 C 899.34 472.38 904.80 466.81 910.27 461.27 C 913.61 456.95 918.15 453.86 921.95 449.99 C 927.31 444.54 933.63 440.18 939.20 434.96 C 931.91 449.83 921.19 462.97 915.72 478.75 C 913.94 483.39 913.04 488.94 915.54 493.50 C 916.58 495.69 918.69 496.99 920.59 498.36 C 921.77 498.53 923.39 498.04 923.97 499.47 C 924.62 497.77 926.72 498.61 928.13 498.29 C 932.22 496.52 936.34 494.68 939.91 491.99 C 951.37 484.13 961.82 474.86 971.73 465.14 C 972.62 471.77 973.92 478.40 976.44 484.62 C 978.76 490.83 983.42 496.29 989.88 498.32 C 998.98 499.71 1007.11 494.29 1014.05 489.12 C 1022.08 483.03 1028.54 475.21 1035.34 467.86 C 1038.22 478.26 1042.46 489.02 1051.18 495.92 C 1053.36 496.93 1055.96 496.82 1058.12 495.78 C 1065.03 493.00 1069.90 487.12 1075.11 482.06 C 1083.37 473.94 1090.83 465.07 1099.06 456.92 C 1095.95 467.38 1091.45 477.82 1091.97 488.96 C 1091.80 492.91 1093.03 497.20 1096.11 499.84 C 1099.53 500.93 1103.58 500.99 1106.98 499.74 C 1115.59 496.55 1122.43 490.18 1129.39 484.42 C 1136.61 477.54 1143.64 470.46 1150.39 463.12 C 1150.43 460.69 1150.44 458.25 1150.41 455.83 C 1143.91 459.55 1138.78 465.48 1131.94 468.75 C 1130.42 469.69 1128.82 470.49 1127.26 471.33 C 1123.94 472.67 1120.35 472.74 1116.84 472.46 C 1110.69 469.33 1110.47 461.33 1112.51 455.60 C 1116.87 445.23 1126.36 437.87 1129.93 427.09 C 1128.88 422.45 1126.94 418.12 1125.05 413.79 C 1124.03 412.05 1126.61 411.43 1127.63 410.70 C 1129.74 409.49 1133.49 408.30 1132.81 405.20 C 1131.79 401.38 1129.97 397.57 1126.84 395.04 C 1124.10 392.67 1120.23 393.68 1116.96 393.71 C 1115.68 394.42 1114.23 394.51 1112.86 394.76 C 1108.57 396.35 1104.08 397.41 1099.93 399.32 C 1097.58 400.19 1095.33 401.25 1093.08 402.31 C 1091.31 403.02 1089.71 404.07 1087.94 404.76 C 1075.73 411.44 1064.31 419.58 1054.02 428.98 C 1047.96 434.98 1040.85 440.47 1037.48 448.56 C 1036.10 451.44 1035.89 454.74 1034.43 457.56 C 1027.93 462.74 1021.53 468.31 1013.92 471.82 C 1009.92 473.81 1005.34 474.73 1000.89 474.38 C 998.58 473.27 995.78 473.06 994.04 470.97 C 989.93 467.23 990.00 460.78 992.14 456.05 C 994.92 450.83 999.34 446.72 1003.51 442.61 C 1012.12 434.88 1019.48 425.48 1023.47 414.53 C 1024.35 411.21 1025.24 406.26 1021.26 404.63 C 1019.20 404.59 1017.12 403.22 1015.15 404.21 C 1013.68 404.37 1012.24 404.51 1010.80 404.67 C 1009.33 405.54 1007.74 406.17 1006.15 406.75 C 999.95 410.48 994.86 415.73 990.23 421.21 C 983.44 430.13 976.55 439.43 973.41 450.35 C 972.50 452.71 972.06 455.41 970.25 457.30 C 964.72 462.50 958.96 467.53 952.36 471.35 C 949.62 472.99 946.09 472.93 943.15 471.93 C 940.83 470.37 938.70 467.99 938.91 465.01 C 938.19 458.72 942.22 453.42 945.85 448.76 C 951.99 440.84 960.26 434.31 964.40 425.01 C 964.35 418.36 960.55 412.61 956.90 407.35 C 956.32 407.71 955.16 408.42 954.58 408.78 C 949.24 412.60 944.01 416.61 939.45 421.35 L 938.64 421.65 C 934.96 425.02 931.54 428.68 927.63 431.79 C 912.77 445.27 898.28 459.19 882.76 471.90 C 893.65 455.67 906.54 440.62 914.94 422.82 C 916.64 419.49 918.18 415.65 916.96 411.89 C 916.10 408.10 912.80 405.52 909.16 404.64 C 908.63 404.67 907.58 404.72 907.05 404.75 C 904.74 405.60 902.21 405.90 900.15 407.33 C 898.56 407.90 897.18 408.84 895.80 409.77 C 876.55 423.57 861.31 442.00 843.99 458.00 C 841.96 460.03 838.83 460.07 836.68 461.88 C 835.43 459.09 836.88 455.84 837.48 453.02 C 844.20 438.07 862.02 430.58 865.67 413.85 C 865.03 413.57 863.76 413.01 863.13 412.74 C 861.11 412.02 859.06 411.41 857.07 410.69 C 856.26 410.68 854.66 410.67 853.85 410.66 C 849.08 412.03 844.78 414.81 841.57 418.60 C 831.56 430.40 822.44 443.29 817.41 458.06 C 811.00 462.93 804.74 468.19 797.24 471.33 C 793.01 472.70 787.16 473.91 783.94 470.00 C 780.97 466.76 781.66 461.88 782.07 457.87 C 785.48 446.22 796.68 438.69 800.00 427.00 C 799.33 421.65 796.17 417.06 794.84 411.90 C 796.26 411.35 797.67 410.75 799.09 410.18 C 799.56 409.92 800.51 409.42 800.99 409.16 C 801.61 408.90 802.84 408.38 803.45 408.13 C 802.42 402.65 800.44 396.34 794.93 393.88 C 792.36 393.18 789.63 393.61 787.02 393.73 M 582.84 518.54 C 578.82 520.29 575.18 523.57 574.14 527.96 C 573.49 530.68 574.62 533.48 576.62 535.35 C 580.57 539.03 585.71 541.45 588.87 545.96 C 589.77 550.76 586.33 555.15 582.34 557.39 C 580.27 557.85 578.07 558.92 576.04 557.75 C 573.52 556.75 571.16 555.40 568.73 554.20 C 568.26 553.91 567.31 553.33 566.83 553.04 C 568.56 556.33 571.49 558.79 574.87 560.30 C 577.73 560.53 580.59 560.19 583.29 559.23 C 587.94 556.97 591.56 552.33 591.47 546.99 C 591.84 544.63 590.01 542.93 588.53 541.41 C 585.05 537.84 580.11 535.91 577.18 531.80 C 575.12 526.68 579.58 522.10 583.99 520.30 C 585.29 520.50 586.59 520.74 587.90 521.03 C 588.91 521.34 589.91 521.72 590.89 522.17 C 592.78 522.98 594.78 523.50 596.85 523.67 C 594.36 521.86 591.96 519.90 589.22 518.49 C 587.08 518.43 584.96 518.43 582.84 518.54 M 637.46 544.45 C 636.87 548.14 635.12 552.25 637.07 555.82 C 638.19 558.17 640.67 559.21 642.86 560.33 C 644.55 560.33 646.33 560.48 647.94 559.78 C 652.95 558.22 656.64 553.74 657.49 548.60 C 659.51 538.14 663.04 527.79 662.76 517.04 C 658.40 528.28 657.72 540.48 654.00 551.89 C 653.04 555.20 649.99 557.04 647.01 558.30 C 646.22 558.30 644.64 558.30 643.85 558.30 C 642.88 557.89 641.91 557.52 640.93 557.18 C 638.93 555.34 638.37 552.63 638.84 550.04 C 640.33 539.05 644.24 528.48 644.64 517.33 C 640.30 525.75 639.78 535.41 637.46 544.45 M 748.12 520.01 C 742.24 523.79 739.99 530.88 738.34 537.30 C 737.07 543.39 735.55 550.02 737.88 556.04 C 738.63 558.31 740.91 559.29 742.85 560.34 C 744.89 560.32 746.94 560.26 748.99 560.14 C 747.54 558.48 745.57 558.03 743.46 558.35 C 741.65 557.24 739.92 555.79 739.43 553.62 C 738.27 548.25 739.38 542.72 740.68 537.48 C 741.99 531.68 743.91 525.58 748.58 521.57 C 752.00 519.85 757.39 519.30 759.41 523.34 C 762.21 529.31 759.89 536.05 758.78 542.17 C 757.02 548.25 754.97 556.10 748.11 558.12 C 748.87 558.56 749.63 559.02 750.41 559.48 C 757.50 555.38 759.82 546.86 761.62 539.43 C 762.79 533.69 764.46 527.10 761.29 521.73 C 758.51 517.32 752.16 517.69 748.12 520.01 M 983.78 517.29 C 978.83 530.88 977.26 545.35 973.85 559.34 C 980.42 559.36 986.99 559.35 993.57 559.31 C 993.60 558.90 993.65 558.07 993.68 557.66 C 988.02 557.33 982.35 557.38 976.68 557.38 C 978.88 544.00 983.80 530.96 983.78 517.29 M 544.69 519.43 C 541.02 532.56 538.64 546.00 535.86 559.34 C 542.11 559.37 548.35 559.32 554.59 559.36 C 554.61 558.95 554.65 558.12 554.66 557.71 C 549.36 557.28 544.04 557.42 538.73 557.35 C 539.81 551.41 541.10 545.52 542.37 539.62 C 546.25 539.43 550.28 540.16 554.08 539.26 L 555.03 537.54 C 550.91 537.48 546.78 537.64 542.66 537.42 C 544.06 532.11 545.24 526.74 546.26 521.35 C 550.85 521.37 555.45 521.40 560.04 521.24 C 561.59 520.69 563.17 520.23 564.74 519.71 C 560.49 519.10 556.12 519.92 551.95 518.72 C 549.72 519.91 547.10 519.27 544.69 519.43 M 605.84 519.79 C 606.94 520.12 608.05 520.42 609.18 520.73 C 612.04 521.78 615.14 521.27 618.11 521.40 C 616.65 529.64 614.63 537.76 612.85 545.93 C 611.87 550.86 610.68 555.84 611.06 560.91 C 616.01 548.21 617.22 534.50 620.67 521.39 C 623.42 521.28 626.28 521.74 628.96 520.88 C 630.41 520.55 631.88 520.23 633.31 519.76 C 624.18 519.10 614.97 519.12 605.84 519.79 M 677.47 519.47 C 673.88 532.59 671.51 545.99 668.68 559.29 L 669.58 560.14 C 673.72 558.95 678.43 560.59 682.28 558.64 C 687.27 557.36 690.44 552.71 692.23 548.18 C 694.64 541.72 696.44 534.85 695.99 527.91 C 695.89 524.62 693.96 521.33 690.91 519.98 C 689.00 519.51 687.03 519.33 685.14 518.80 C 684.32 518.80 682.69 518.80 681.87 518.80 C 680.45 519.34 678.95 519.39 677.47 519.47 M 712.85 519.98 C 714.69 520.53 716.64 520.85 718.38 521.76 C 719.00 522.75 718.40 524.00 718.29 525.08 C 715.84 535.39 714.20 545.89 711.39 556.12 C 709.21 557.31 707.01 558.42 704.86 559.66 C 709.66 559.71 714.45 559.27 719.26 559.25 C 718.12 557.63 716.16 557.32 714.32 557.28 C 714.05 555.49 714.40 553.72 714.85 552.00 C 717.22 541.89 719.04 531.67 721.49 521.58 C 722.14 521.49 723.44 521.31 724.10 521.22 C 725.47 520.67 726.89 520.20 728.27 519.65 C 723.17 519.52 717.81 518.72 712.85 519.98 M 812.06 519.19 L 812.20 519.41 C 808.49 531.95 805.90 544.85 803.85 557.74 L 803.69 557.09 C 803.54 557.67 803.24 558.82 803.09 559.39 C 807.58 558.91 812.61 560.55 816.73 558.38 C 817.11 558.39 817.87 558.41 818.25 558.42 C 825.46 554.48 827.96 545.87 829.56 538.38 C 830.56 532.99 831.80 526.61 828.06 521.97 C 826.15 519.52 822.89 519.30 820.05 519.30 C 817.93 517.87 814.65 519.63 812.06 519.19 M 847.35 519.39 C 843.58 532.52 841.22 545.99 838.56 559.37 C 845.31 559.35 852.06 559.39 858.81 559.30 C 858.84 559.07 858.89 558.61 858.92 558.38 C 858.32 558.41 857.10 558.48 856.50 558.51 L 856.51 557.53 C 851.48 557.37 846.45 557.36 841.42 557.32 C 842.14 552.50 843.37 547.78 844.19 542.99 C 844.54 541.95 844.40 540.05 846.06 540.22 C 849.94 539.13 854.14 540.06 857.97 538.80 C 853.91 537.75 849.73 537.37 845.55 537.46 C 846.54 532.06 847.70 526.68 849.11 521.37 C 854.53 521.40 859.95 521.35 865.38 521.41 C 865.71 520.90 866.35 519.89 866.68 519.39 C 860.23 519.35 853.79 519.36 847.35 519.39 M 913.73 519.47 C 911.36 533.35 906.54 546.94 906.22 561.09 C 908.58 555.41 909.71 549.34 911.12 543.38 C 914.88 543.60 918.62 543.00 922.20 541.84 C 927.24 540.45 930.51 535.46 931.30 530.49 C 932.33 526.55 930.93 521.62 926.96 519.93 C 922.63 518.89 918.12 519.34 913.73 519.47 M 948.02 519.89 C 949.93 520.64 951.90 521.29 953.96 521.53 C 953.79 524.69 952.89 527.75 952.28 530.85 C 950.26 539.60 949.00 548.56 946.39 557.16 C 944.13 557.45 941.95 558.07 939.81 558.79 C 944.27 560.00 949.11 559.15 953.71 559.27 C 953.96 558.83 954.46 557.94 954.71 557.50 C 952.81 557.40 950.95 557.36 949.08 557.33 C 951.80 545.48 953.92 533.50 956.70 521.66 C 957.30 521.54 958.51 521.31 959.11 521.19 C 960.30 520.76 961.52 520.41 962.78 520.13 C 962.77 519.96 962.76 519.61 962.76 519.44 C 957.85 519.57 952.85 518.90 948.02 519.89 M 1021.61 521.51 C 1016.58 531.71 1010.51 541.36 1005.60 551.62 C 1004.19 554.65 1002.53 557.66 1002.13 561.03 C 1005.25 556.66 1008.08 552.08 1010.46 547.26 C 1014.93 547.28 1019.41 547.38 1023.89 547.32 C 1024.61 552.15 1025.19 557.03 1026.65 561.71 C 1028.32 547.28 1024.33 533.06 1023.52 518.72 C 1022.77 519.57 1022.08 520.48 1021.61 521.51 M 1041.79 519.58 C 1044.03 520.94 1046.56 522.02 1049.23 521.35 C 1051.18 521.46 1053.14 521.38 1055.11 521.38 C 1052.63 534.71 1048.56 547.78 1047.52 561.36 C 1052.90 548.98 1054.18 535.36 1057.01 522.28 C 1061.68 521.11 1067.38 522.79 1071.28 519.38 C 1066.54 518.46 1061.67 519.84 1057.00 518.52 C 1052.01 519.93 1046.81 518.40 1041.79 519.58 M 1082.59 519.42 C 1078.87 532.54 1076.66 546.01 1073.79 559.32 C 1080.52 559.40 1087.25 559.38 1093.98 559.28 C 1093.77 558.92 1093.33 558.19 1093.11 557.82 C 1087.65 557.18 1082.16 557.42 1076.70 557.31 C 1077.73 551.37 1078.96 545.47 1080.36 539.61 C 1084.32 539.70 1088.30 539.76 1092.27 539.52 C 1092.44 539.00 1092.78 537.97 1092.95 537.46 C 1088.91 537.53 1084.87 537.51 1080.83 537.50 C 1081.88 532.10 1083.13 526.75 1084.19 521.35 C 1089.11 521.38 1094.05 521.47 1098.98 521.18 C 1100.27 520.53 1101.68 520.13 1103.08 519.74 C 1099.16 518.72 1094.39 520.55 1091.01 518.35 C 1088.70 520.21 1085.35 519.08 1082.59 519.42 M 1112.64 533.27 C 1116.52 538.78 1124.17 540.72 1127.02 547.10 C 1126.42 551.92 1123.19 556.91 1118.13 557.81 C 1113.12 559.56 1109.43 554.05 1104.56 554.28 C 1107.07 556.61 1109.69 558.90 1112.85 560.32 C 1114.58 560.32 1116.33 560.30 1118.09 560.20 C 1119.07 559.78 1120.08 559.42 1121.12 559.12 C 1126.48 556.56 1130.59 550.35 1128.61 544.35 C 1125.45 538.76 1118.45 537.05 1114.95 531.76 C 1112.84 526.07 1118.09 520.04 1123.97 520.46 C 1125.41 521.45 1127.20 521.57 1128.85 522.10 C 1130.62 522.96 1132.53 523.47 1134.52 523.55 C 1130.57 520.11 1125.46 517.06 1120.05 519.03 C 1114.30 520.79 1110.11 527.46 1112.64 533.27 Z" />
<path fill="#ffffff" opacity="1.00" d=" M 459.22 328.40 C 463.59 331.68 468.76 333.77 473.34 336.77 C 487.01 345.51 499.16 357.77 504.72 373.30 C 507.14 380.08 508.81 387.21 508.98 394.43 C 497.38 394.50 485.79 394.50 474.19 394.50 C 469.92 388.55 465.11 382.98 459.71 378.01 C 459.28 361.48 458.97 344.93 459.22 328.40 Z" />
<path fill="#ffffff" opacity="1.00" d=" M 420.90 378.85 C 422.53 378.47 424.15 378.05 425.70 377.39 C 424.15 387.33 423.68 397.39 422.63 407.39 C 421.94 407.44 420.55 407.54 419.85 407.59 C 418.57 408.11 417.30 408.62 416.02 409.14 C 408.16 412.41 401.68 418.15 394.33 422.35 C 392.03 423.72 389.35 424.27 387.11 425.75 C 386.94 415.22 389.22 404.17 395.63 395.59 C 399.69 390.28 404.85 385.75 410.89 382.83 C 413.20 381.80 415.51 380.77 417.83 379.77 C 418.87 379.54 419.89 379.23 420.90 378.85 Z" />
<path fill="#ffffff" opacity="1.00" d=" M 785.88 415.63 C 786.43 415.57 787.53 415.47 788.08 415.41 C 773.52 435.65 758.98 456.79 738.33 471.35 L 737.50 471.61 C 733.84 474.10 729.23 477.64 724.69 475.27 C 721.51 471.27 721.50 465.83 722.48 461.06 C 724.71 452.83 731.29 446.79 737.80 441.75 C 741.57 439.16 745.31 436.50 749.33 434.31 C 750.20 433.79 751.06 433.28 751.94 432.77 C 752.40 432.51 753.32 432.00 753.78 431.74 C 756.79 430.04 759.88 428.45 762.91 426.75 C 764.31 426.25 765.66 425.57 766.88 424.68 C 768.28 424.24 769.59 423.54 770.87 422.80 C 771.38 422.55 772.39 422.05 772.90 421.81 C 774.28 421.25 775.63 420.57 776.91 419.78 C 779.87 418.34 783.10 417.42 785.88 415.63 Z" />
<path fill="#ffffff" opacity="1.00" d=" M 1115.81 415.56 C 1116.32 415.54 1117.34 415.50 1117.85 415.48 C 1105.90 431.82 1094.22 448.63 1079.36 462.51 C 1072.74 467.76 1066.28 473.83 1058.04 476.35 C 1056.57 476.30 1054.70 476.48 1054.11 474.81 C 1049.83 468.40 1051.41 459.65 1055.65 453.63 C 1062.43 443.60 1073.51 437.76 1083.64 431.67 C 1085.41 430.76 1087.16 429.78 1088.88 428.76 C 1090.24 428.21 1091.55 427.53 1092.77 426.70 C 1097.35 424.12 1102.27 422.23 1106.88 419.71 C 1107.98 419.28 1109.08 418.82 1110.18 418.33 C 1111.99 417.29 1114.07 416.77 1115.81 415.56 Z" />
<path fill="#ffffff" opacity="1.00" d=" M 497.80 422.78 C 498.88 422.33 499.97 421.87 501.06 421.40 C 500.80 428.74 500.86 436.57 497.17 443.17 C 490.04 455.58 479.98 466.60 467.13 473.19 C 464.78 474.17 462.43 475.15 460.08 476.12 C 457.42 476.83 454.72 477.38 452.11 478.25 C 443.39 479.10 434.49 479.28 425.93 477.17 C 420.87 475.66 415.83 473.96 411.08 471.64 C 409.09 470.87 407.31 469.57 405.18 469.19 C 408.75 462.50 413.38 456.42 417.03 449.75 C 424.22 448.45 431.72 447.89 438.93 449.19 C 441.79 449.29 444.89 450.03 447.59 448.71 C 453.73 446.16 456.81 439.49 462.86 436.77 C 464.29 436.28 465.70 435.72 467.13 435.18 C 468.11 434.83 469.10 434.50 470.10 434.19 C 471.10 433.85 472.11 433.53 473.13 433.24 C 475.39 432.44 477.79 432.01 479.90 430.85 C 482.94 429.64 485.88 428.21 488.79 426.72 C 489.89 426.26 490.98 425.80 492.10 425.35 C 493.92 424.33 495.92 423.69 497.80 422.78 Z" />
<path fill="#ffffff" opacity="1.00" d=" M 678.29 523.88 C 678.53 522.56 679.39 521.48 680.02 520.34 C 681.38 520.39 682.70 520.66 683.99 521.14 C 685.80 521.31 687.61 521.40 689.43 521.45 C 691.94 523.18 694.35 525.64 693.91 528.98 C 693.61 537.16 692.02 545.61 687.82 552.73 C 684.21 558.37 676.89 557.55 671.12 557.75 C 673.58 546.48 675.79 535.14 678.29 523.88 Z" />
<path fill="#ffffff" opacity="1.00" d=" M 813.27 521.16 C 815.64 521.23 818.01 521.25 820.40 521.30 C 824.01 520.75 827.89 523.14 828.08 526.99 C 828.70 535.02 826.97 543.21 823.52 550.47 C 821.59 554.70 817.28 557.92 812.49 557.53 C 810.28 557.52 808.05 557.51 805.94 558.19 C 807.66 545.73 810.92 533.52 813.27 521.16 Z" />
<path fill="#ffffff" opacity="1.00" d=" M 915.93 521.24 C 919.10 521.13 922.26 521.15 925.43 521.39 C 930.40 523.90 929.75 530.41 927.66 534.67 C 926.61 537.18 924.43 538.90 922.13 540.19 C 918.59 541.24 914.90 541.57 911.25 541.88 C 912.39 534.92 913.61 527.92 915.93 521.24 Z" />
<path fill="#ffffff" opacity="1.00" d=" M 1010.97 545.34 C 1014.44 538.21 1018.16 531.20 1022.09 524.32 C 1023.15 531.30 1023.65 538.35 1024.49 545.36 C 1019.98 545.36 1015.47 545.38 1010.97 545.34 Z" />
</g>
<g id="#013112ff">
<path fill="#013112" opacity="1.00" d=" M 441.19 209.89 C 444.32 213.64 446.20 218.23 447.13 222.99 C 448.42 228.27 448.51 234.32 452.38 238.56 C 454.73 241.15 457.31 243.52 459.67 246.11 C 458.66 250.93 455.65 255.12 454.85 259.96 C 456.57 272.95 459.34 285.84 459.96 298.96 C 460.10 303.10 459.73 307.25 460.30 311.37 C 461.94 311.77 463.58 312.27 465.18 312.84 C 466.75 313.69 468.43 314.30 470.15 314.81 C 494.48 326.13 513.87 346.85 524.55 371.37 C 530.08 382.73 530.70 395.65 531.30 408.04 C 531.33 423.95 528.23 440.01 521.34 454.41 C 520.14 456.97 518.42 459.28 517.54 461.98 C 517.68 471.58 519.66 482.15 527.00 488.98 C 529.93 491.87 534.21 492.01 537.91 493.24 C 539.58 493.42 541.30 493.53 542.90 494.15 C 544.10 494.51 545.52 494.47 546.58 495.27 C 546.03 497.44 543.70 498.10 542.12 499.34 C 530.37 499.52 518.62 499.33 506.87 499.21 C 505.31 498.63 503.65 498.64 502.02 498.61 C 501.88 491.18 504.50 484.13 505.53 476.86 C 505.21 477.19 504.56 477.86 504.24 478.20 C 497.67 482.65 491.19 487.37 483.92 490.63 C 482.12 491.59 480.22 492.34 478.27 492.91 C 483.48 493.95 488.93 494.16 493.92 496.20 C 495.41 496.75 496.91 497.28 498.45 497.71 C 498.48 498.11 498.53 498.91 498.55 499.32 C 492.32 498.82 486.28 500.76 480.06 500.41 C 461.70 500.42 443.33 499.96 424.99 500.60 C 418.68 501.80 412.24 501.10 405.89 501.81 C 403.66 502.60 401.27 502.32 398.96 502.38 C 390.34 502.27 381.72 503.31 373.11 502.59 C 365.75 502.63 358.33 500.14 351.05 502.15 C 349.35 502.35 347.60 502.38 346.02 503.09 C 344.65 503.33 343.25 503.47 341.97 504.02 C 339.99 504.62 337.98 505.14 335.98 505.63 C 336.76 506.74 337.81 507.66 339.11 508.13 C 336.14 509.07 333.07 509.51 329.99 509.82 C 322.89 511.36 315.63 509.43 308.60 508.28 C 304.32 505.99 300.35 503.15 296.78 499.87 C 296.75 502.14 296.71 504.42 296.64 506.70 C 294.48 503.64 292.17 500.62 290.87 497.07 C 288.06 490.02 288.73 482.26 289.24 474.87 C 290.03 467.63 296.48 462.36 303.04 460.21 C 305.36 459.43 307.68 458.50 310.16 458.36 C 312.85 458.19 315.26 459.88 317.94 459.75 C 319.98 459.57 321.09 457.56 322.44 456.28 C 323.30 456.56 324.15 456.87 324.99 457.22 C 326.33 457.49 327.80 457.45 329.00 458.24 C 330.64 458.53 332.46 458.35 333.94 459.27 C 335.79 459.51 337.65 459.66 339.52 459.76 C 339.80 464.37 338.67 468.96 338.03 473.53 C 338.54 473.47 339.56 473.37 340.07 473.31 C 342.77 472.18 345.79 472.24 348.58 471.34 C 348.86 465.39 347.25 459.14 349.71 453.47 C 352.17 449.34 357.09 448.21 361.03 446.03 C 365.90 443.63 370.70 440.50 373.62 435.83 C 376.69 420.04 379.54 403.47 388.94 390.00 C 398.02 377.07 412.27 367.87 427.94 365.51 C 432.10 351.47 431.77 336.65 435.14 322.46 C 431.41 322.60 427.67 322.52 423.94 322.77 C 419.43 323.89 414.66 324.09 410.04 324.81 C 408.81 325.56 407.32 325.58 405.95 325.86 C 404.33 326.34 402.69 326.79 401.08 327.32 C 400.53 327.41 399.41 327.59 398.85 327.68 C 397.61 328.26 396.34 328.76 395.10 329.30 C 393.67 329.77 392.26 330.27 390.85 330.75 C 372.15 338.47 355.78 352.20 345.95 369.99 C 340.16 379.73 337.23 390.75 332.95 401.17 C 330.35 389.87 333.62 378.23 337.64 367.68 C 346.81 344.92 365.94 327.27 387.87 316.90 C 389.54 316.28 391.23 315.68 392.79 314.80 C 394.18 314.32 395.58 313.84 396.99 313.40 C 398.30 312.90 399.63 312.44 400.95 311.93 C 403.29 311.26 405.64 310.65 407.94 309.82 C 409.63 309.64 411.35 309.50 412.93 308.80 C 414.93 308.61 417.01 308.60 418.91 307.79 C 424.70 307.48 430.50 307.19 436.31 307.38 C 436.64 300.52 440.45 294.62 441.88 288.04 C 442.72 278.64 440.88 269.30 439.94 259.97 C 438.62 250.67 438.52 241.12 440.31 231.87 C 441.75 224.63 440.61 217.21 441.19 209.89 M 459.22 328.40 C 458.97 344.93 459.28 361.48 459.71 378.01 C 465.11 382.98 469.92 388.55 474.19 394.50 C 485.79 394.50 497.38 394.50 508.98 394.43 C 508.81 387.21 507.14 380.08 504.72 373.30 C 499.16 357.77 487.01 345.51 473.34 336.77 C 468.76 333.77 463.59 331.68 459.22 328.40 M 420.90 378.85 C 419.89 379.23 418.87 379.54 417.83 379.77 C 415.51 380.77 413.20 381.80 410.89 382.83 C 404.85 385.75 399.69 390.28 395.63 395.59 C 389.22 404.17 386.94 415.22 387.11 425.75 C 389.35 424.27 392.03 423.72 394.33 422.35 C 401.68 418.15 408.16 412.41 416.02 409.14 C 417.30 408.62 418.57 408.11 419.85 407.59 C 420.55 407.54 421.94 407.44 422.63 407.39 C 423.68 397.39 424.15 387.33 425.70 377.39 C 424.15 378.05 422.53 378.47 420.90 378.85 M 497.80 422.78 C 495.92 423.69 493.92 424.33 492.10 425.35 C 490.98 425.80 489.89 426.26 488.79 426.72 C 485.88 428.21 482.94 429.64 479.90 430.85 C 477.79 432.01 475.39 432.44 473.13 433.24 C 472.11 433.53 471.10 433.85 470.10 434.19 C 469.10 434.50 468.11 434.83 467.13 435.18 C 465.70 435.72 464.29 436.28 462.86 436.77 C 456.81 439.49 453.73 446.16 447.59 448.71 C 444.89 450.03 441.79 449.29 438.93 449.19 C 431.72 447.89 424.22 448.45 417.03 449.75 C 413.38 456.42 408.75 462.50 405.18 469.19 C 407.31 469.57 409.09 470.87 411.08 471.64 C 415.83 473.96 420.87 475.66 425.93 477.17 C 434.49 479.28 443.39 479.10 452.11 478.25 C 454.72 477.38 457.42 476.83 460.08 476.12 C 462.43 475.15 464.78 474.17 467.13 473.19 C 479.98 466.60 490.04 455.58 497.17 443.17 C 500.86 436.57 500.80 428.74 501.06 421.40 C 499.97 421.87 498.88 422.33 497.80 422.78 Z" />
<path fill="#013112" opacity="1.00" d=" M 596.46 368.53 C 599.59 365.18 604.69 363.43 609.08 365.19 C 611.51 366.13 613.66 368.26 613.99 370.94 C 615.45 379.88 609.46 388.69 601.83 392.85 C 599.35 394.04 596.53 393.40 593.89 393.43 C 591.32 391.67 588.22 389.58 588.02 386.15 C 587.51 379.32 591.69 373.05 596.46 368.53 Z" />
<path fill="#013112" opacity="1.00" d=" M 1033.90 364.66 C 1035.67 364.61 1037.45 364.58 1039.25 364.57 C 1042.36 365.91 1045.48 368.29 1045.75 371.94 C 1046.33 380.33 1040.93 388.04 1034.07 392.39 C 1031.54 393.91 1028.53 393.52 1025.72 393.51 C 1021.74 391.78 1018.32 387.65 1019.35 383.09 C 1021.14 375.22 1026.35 367.90 1033.90 364.66 Z" />
<path fill="#013112" opacity="1.00" d=" M 787.02 393.73 C 789.63 393.61 792.36 393.18 794.93 393.88 C 800.44 396.34 802.42 402.65 803.45 408.13 C 802.84 408.38 801.61 408.90 800.99 409.16 C 800.51 409.42 799.56 409.92 799.09 410.18 C 797.67 410.75 796.26 411.35 794.84 411.90 C 796.17 417.06 799.33 421.65 800.00 427.00 C 796.68 438.69 785.48 446.22 782.07 457.87 C 781.66 461.88 780.97 466.76 783.94 470.00 C 787.16 473.91 793.01 472.70 797.24 471.33 C 804.74 468.19 811.00 462.93 817.41 458.06 C 822.44 443.29 831.56 430.40 841.57 418.60 C 844.78 414.81 849.08 412.03 853.85 410.66 C 854.66 410.67 856.26 410.68 857.07 410.69 C 859.06 411.41 861.11 412.02 863.13 412.74 C 863.76 413.01 865.03 413.57 865.67 413.85 C 862.02 430.58 844.20 438.07 837.48 453.02 C 836.88 455.84 835.43 459.09 836.68 461.88 C 838.83 460.07 841.96 460.03 843.99 458.00 C 861.31 442.00 876.55 423.57 895.80 409.77 C 897.18 408.84 898.56 407.90 900.15 407.33 C 902.21 405.90 904.74 405.60 907.05 404.75 C 907.58 404.72 908.63 404.67 909.16 404.64 C 912.80 405.52 916.10 408.10 916.96 411.89 C 918.18 415.65 916.64 419.49 914.94 422.82 C 906.54 440.62 893.65 455.67 882.76 471.90 C 898.28 459.19 912.77 445.27 927.63 431.79 C 931.54 428.68 934.96 425.02 938.64 421.65 L 939.45 421.35 C 944.01 416.61 949.24 412.60 954.58 408.78 C 955.16 408.42 956.32 407.71 956.90 407.35 C 960.55 412.61 964.35 418.36 964.40 425.01 C 960.26 434.31 951.99 440.84 945.85 448.76 C 942.22 453.42 938.19 458.72 938.91 465.01 C 938.70 467.99 940.83 470.37 943.15 471.93 C 946.09 472.93 949.62 472.99 952.36 471.35 C 958.96 467.53 964.72 462.50 970.25 457.30 C 972.06 455.41 972.50 452.71 973.41 450.35 C 976.55 439.43 983.44 430.13 990.23 421.21 C 994.86 415.73 999.95 410.48 1006.15 406.75 C 1007.74 406.17 1009.33 405.54 1010.80 404.67 C 1012.24 404.51 1013.68 404.37 1015.15 404.21 C 1017.12 403.22 1019.20 404.59 1021.26 404.63 C 1025.24 406.26 1024.35 411.21 1023.47 414.53 C 1019.48 425.48 1012.12 434.88 1003.51 442.61 C 999.34 446.72 994.92 450.83 992.14 456.05 C 990.00 460.78 989.93 467.23 994.04 470.97 C 995.78 473.06 998.58 473.27 1000.89 474.38 C 1005.34 474.73 1009.92 473.81 1013.92 471.82 C 1021.53 468.31 1027.93 462.74 1034.43 457.56 C 1035.89 454.74 1036.10 451.44 1037.48 448.56 C 1040.85 440.47 1047.96 434.98 1054.02 428.98 C 1064.31 419.58 1075.73 411.44 1087.94 404.76 C 1089.71 404.07 1091.31 403.02 1093.08 402.31 C 1095.33 401.25 1097.58 400.19 1099.93 399.32 C 1104.08 397.41 1108.57 396.35 1112.86 394.76 C 1114.23 394.51 1115.68 394.42 1116.96 393.71 C 1120.23 393.68 1124.10 392.67 1126.84 395.04 C 1129.97 397.57 1131.79 401.38 1132.81 405.20 C 1133.49 408.30 1129.74 409.49 1127.63 410.70 C 1126.61 411.43 1124.03 412.05 1125.05 413.79 C 1126.94 418.12 1128.88 422.45 1129.93 427.09 C 1126.36 437.87 1116.87 445.23 1112.51 455.60 C 1110.47 461.33 1110.69 469.33 1116.84 472.46 C 1120.35 472.74 1123.94 472.67 1127.26 471.33 C 1128.82 470.49 1130.42 469.69 1131.94 468.75 C 1138.78 465.48 1143.91 459.55 1150.41 455.83 C 1150.44 458.25 1150.43 460.69 1150.39 463.12 C 1143.64 470.46 1136.61 477.54 1129.39 484.42 C 1122.43 490.18 1115.59 496.55 1106.98 499.74 C 1103.58 500.99 1099.53 500.93 1096.11 499.84 C 1093.03 497.20 1091.80 492.91 1091.97 488.96 C 1091.45 477.82 1095.95 467.38 1099.06 456.92 C 1090.83 465.07 1083.37 473.94 1075.11 482.06 C 1069.90 487.12 1065.03 493.00 1058.12 495.78 C 1055.96 496.82 1053.36 496.93 1051.18 495.92 C 1042.46 489.02 1038.22 478.26 1035.34 467.86 C 1028.54 475.21 1022.08 483.03 1014.05 489.12 C 1007.11 494.29 998.98 499.71 989.88 498.32 C 983.42 496.29 978.76 490.83 976.44 484.62 C 973.92 478.40 972.62 471.77 971.73 465.14 C 961.82 474.86 951.37 484.13 939.91 491.99 C 936.34 494.68 932.22 496.52 928.13 498.29 C 926.72 498.61 924.62 497.77 923.97 499.47 C 923.39 498.04 921.77 498.53 920.59 498.36 C 918.69 496.99 916.58 495.69 915.54 493.50 C 913.04 488.94 913.94 483.39 915.72 478.75 C 921.19 462.97 931.91 449.83 939.20 434.96 C 933.63 440.18 927.31 444.54 921.95 449.99 C 918.15 453.86 913.61 456.95 910.27 461.27 C 904.80 466.81 899.34 472.38 894.35 478.37 C 888.32 484.72 883.17 493.05 874.11 495.26 C 873.27 495.29 871.60 495.36 870.77 495.40 C 865.79 492.79 865.06 486.36 866.66 481.50 C 870.89 469.60 877.76 458.93 883.89 447.96 C 885.26 445.43 887.02 442.88 887.10 439.90 C 886.88 438.29 885.49 437.46 884.01 437.29 C 882.41 438.33 880.75 439.22 879.11 440.16 C 872.11 446.16 866.24 453.31 859.93 460.00 C 852.42 467.90 845.88 476.65 839.61 485.56 C 837.60 488.52 835.03 491.03 832.42 493.45 C 831.52 493.43 829.74 493.39 828.85 493.37 C 820.17 487.49 818.73 476.30 817.17 466.79 C 804.74 479.27 792.77 493.35 776.16 500.31 C 773.23 500.58 770.30 500.60 767.39 500.43 C 764.74 498.35 762.58 495.53 762.34 492.07 C 760.80 479.87 766.14 468.41 769.11 456.88 C 759.79 466.65 750.94 476.86 741.27 486.28 C 736.65 490.29 732.16 495.22 725.94 496.52 C 722.72 497.35 720.34 494.62 718.17 492.76 C 711.09 485.54 707.39 475.63 705.61 465.83 C 703.81 466.50 702.54 467.92 701.30 469.31 C 693.57 476.24 686.39 483.79 678.23 490.24 C 672.93 494.35 667.18 499.38 659.97 498.71 C 655.97 499.18 652.74 495.95 651.49 492.44 C 649.08 485.78 650.45 478.38 653.02 471.98 C 659.12 458.98 667.30 447.10 673.79 434.30 C 672.13 435.72 670.36 437.00 668.51 438.16 C 654.07 448.64 642.37 462.38 631.70 476.56 C 627.02 482.94 622.24 489.57 615.38 493.79 C 615.39 493.98 615.41 494.36 615.42 494.55 C 607.89 487.65 605.14 477.49 603.82 467.72 C 594.16 478.97 583.94 490.80 569.98 496.71 C 568.64 497.19 567.31 497.68 566.01 498.26 C 563.00 498.28 559.77 499.01 556.95 497.69 C 550.05 495.40 546.24 488.47 544.00 482.01 C 539.44 468.73 538.84 453.32 545.77 440.74 C 550.45 432.39 555.77 424.32 562.33 417.32 C 566.31 412.52 571.25 408.47 576.85 405.71 C 579.41 404.35 582.41 404.82 584.98 403.58 C 587.18 404.18 589.44 404.63 591.54 405.56 C 592.72 407.53 593.41 409.82 592.75 412.12 C 591.26 418.40 587.71 423.93 584.19 429.26 C 578.41 437.97 569.70 444.09 563.17 452.17 C 559.86 456.21 557.91 462.04 560.00 467.08 C 560.96 469.90 563.47 471.79 565.93 473.28 C 570.28 474.90 574.80 474.50 579.19 473.30 C 580.39 472.77 581.61 472.28 582.82 471.74 C 583.31 471.49 584.28 470.99 584.77 470.75 C 586.72 469.58 588.63 468.35 590.57 467.18 C 594.66 464.13 599.06 461.38 602.46 457.53 C 604.46 454.98 605.51 451.86 606.91 448.98 C 609.50 442.93 613.42 437.60 617.07 432.17 C 621.62 425.48 626.82 419.13 633.20 414.10 C 636.95 411.38 641.71 411.21 646.16 411.62 C 647.78 412.60 649.80 413.28 650.78 415.04 C 651.70 418.30 649.51 421.17 647.54 423.50 C 641.75 430.33 635.49 436.77 630.18 443.99 C 626.34 449.48 621.32 455.36 623.16 462.60 C 627.44 462.49 630.20 458.79 632.91 455.96 C 647.39 438.82 663.03 422.28 681.81 409.78 C 684.42 408.00 687.07 406.30 689.85 404.78 C 692.24 403.62 694.88 403.34 697.52 403.27 C 700.92 409.11 703.07 416.07 701.64 422.82 C 698.48 429.27 692.60 433.72 688.38 439.40 C 682.75 446.56 676.64 453.69 673.64 462.44 C 672.46 465.75 672.16 469.81 674.83 472.49 C 677.19 472.65 679.72 473.07 681.94 472.01 C 689.65 468.55 696.16 463.05 702.79 457.93 C 705.38 456.11 706.15 452.88 707.27 450.11 C 708.84 445.52 711.64 441.44 714.99 437.96 C 726.71 425.80 740.06 415.19 754.67 406.71 C 756.25 405.87 757.83 405.05 759.47 404.33 C 760.29 403.81 761.11 403.28 761.93 402.73 C 764.69 401.71 767.33 400.36 770.10 399.35 C 771.33 398.83 772.60 398.33 773.84 397.80 C 776.82 396.72 779.91 395.95 782.85 394.73 C 784.24 394.47 785.80 394.60 787.02 393.73 M 785.88 415.63 C 783.10 417.42 779.87 418.34 776.91 419.78 C 775.63 420.57 774.28 421.25 772.90 421.81 C 772.39 422.05 771.38 422.55 770.87 422.80 C 769.59 423.54 768.28 424.24 766.88 424.68 C 765.66 425.57 764.31 426.25 762.91 426.75 C 759.88 428.45 756.79 430.04 753.78 431.74 C 753.32 432.00 752.40 432.51 751.94 432.77 C 751.06 433.28 750.20 433.79 749.33 434.31 C 745.31 436.50 741.57 439.16 737.80 441.75 C 731.29 446.79 724.71 452.83 722.48 461.06 C 721.50 465.83 721.51 471.27 724.69 475.27 C 729.23 477.64 733.84 474.10 737.50 471.61 L 738.33 471.35 C 758.98 456.79 773.52 435.65 788.08 415.41 C 787.53 415.47 786.43 415.57 785.88 415.63 M 1115.81 415.56 C 1114.07 416.77 1111.99 417.29 1110.18 418.33 C 1109.08 418.82 1107.98 419.28 1106.88 419.71 C 1102.27 422.23 1097.35 424.12 1092.77 426.70 C 1091.55 427.53 1090.24 428.21 1088.88 428.76 C 1087.16 429.78 1085.41 430.76 1083.64 431.67 C 1073.51 437.76 1062.43 443.60 1055.65 453.63 C 1051.41 459.65 1049.83 468.40 1054.11 474.81 C 1054.70 476.48 1056.57 476.30 1058.04 476.35 C 1066.28 473.83 1072.74 467.76 1079.36 462.51 C 1094.22 448.63 1105.90 431.82 1117.85 415.48 C 1117.34 415.50 1116.32 415.54 1115.81 415.56 Z" />
<path fill="#013112" opacity="1.00" d=" M 637.46 544.45 C 639.78 535.41 640.30 525.75 644.64 517.33 C 644.24 528.48 640.33 539.05 638.84 550.04 C 638.37 552.63 638.93 555.34 640.93 557.18 C 641.91 557.52 642.88 557.89 643.85 558.30 C 644.64 558.30 646.22 558.30 647.01 558.30 C 649.99 557.04 653.04 555.20 654.00 551.89 C 657.72 540.48 658.40 528.28 662.76 517.04 C 663.04 527.79 659.51 538.14 657.49 548.60 C 656.64 553.74 652.95 558.22 647.94 559.78 C 646.33 560.48 644.55 560.33 642.86 560.33 C 640.67 559.21 638.19 558.17 637.07 555.82 C 635.12 552.25 636.87 548.14 637.46 544.45 Z" />
<path fill="#013112" opacity="1.00" d=" M 983.78 517.29 C 983.80 530.96 978.88 544.00 976.68 557.38 C 982.35 557.38 988.02 557.33 993.68 557.66 C 993.65 558.07 993.60 558.90 993.57 559.31 C 986.99 559.35 980.42 559.36 973.85 559.34 C 977.26 545.35 978.83 530.88 983.78 517.29 Z" />
<path fill="#013112" opacity="1.00" d=" M 544.69 519.43 C 547.10 519.27 549.72 519.91 551.95 518.72 C 556.12 519.92 560.49 519.10 564.74 519.71 C 563.17 520.23 561.59 520.69 560.04 521.24 C 555.45 521.40 550.85 521.37 546.26 521.35 C 545.24 526.74 544.06 532.11 542.66 537.42 C 546.78 537.64 550.91 537.48 555.03 537.54 L 554.08 539.26 C 550.28 540.16 546.25 539.43 542.37 539.62 C 541.10 545.52 539.81 551.41 538.73 557.35 C 544.04 557.42 549.36 557.28 554.66 557.71 C 554.65 558.12 554.61 558.95 554.59 559.36 C 548.35 559.32 542.11 559.37 535.86 559.34 C 538.64 546.00 541.02 532.56 544.69 519.43 Z" />
<path fill="#013112" opacity="1.00" d=" M 712.85 519.98 C 717.81 518.72 723.17 519.52 728.27 519.65 C 726.89 520.20 725.47 520.67 724.10 521.22 C 723.44 521.31 722.14 521.49 721.49 521.58 C 719.04 531.67 717.22 541.89 714.85 552.00 C 714.40 553.72 714.05 555.49 714.32 557.28 C 716.16 557.32 718.12 557.63 719.26 559.25 C 714.45 559.27 709.66 559.71 704.86 559.66 C 707.01 558.42 709.21 557.31 711.39 556.12 C 714.20 545.89 715.84 535.39 718.29 525.08 C 718.40 524.00 719.00 522.75 718.38 521.76 C 716.64 520.85 714.69 520.53 712.85 519.98 Z" />
<path fill="#013112" opacity="1.00" d=" M 820.05 519.30 C 822.89 519.30 826.15 519.52 828.06 521.97 C 831.80 526.61 830.56 532.99 829.56 538.38 C 827.96 545.87 825.46 554.48 818.25 558.42 C 817.87 558.41 817.11 558.39 816.73 558.38 C 815.30 558.12 813.89 557.81 812.49 557.53 C 817.28 557.92 821.59 554.70 823.52 550.47 C 826.97 543.21 828.70 535.02 828.08 526.99 C 827.89 523.14 824.01 520.75 820.40 521.30 C 820.31 520.80 820.14 519.80 820.05 519.30 Z" />
<path fill="#013112" opacity="1.00" d=" M 948.02 519.89 C 952.85 518.90 957.85 519.57 962.76 519.44 C 962.76 519.61 962.77 519.96 962.78 520.13 C 961.52 520.41 960.30 520.76 959.11 521.19 C 958.51 521.31 957.30 521.54 956.70 521.66 C 953.92 533.50 951.80 545.48 949.08 557.33 C 950.95 557.36 952.81 557.40 954.71 557.50 C 954.46 557.94 953.96 558.83 953.71 559.27 C 949.11 559.15 944.27 560.00 939.81 558.79 C 941.95 558.07 944.13 557.45 946.39 557.16 C 949.00 548.56 950.26 539.60 952.28 530.85 C 952.89 527.75 953.79 524.69 953.96 521.53 C 951.90 521.29 949.93 520.64 948.02 519.89 Z" />
<path fill="#013112" opacity="1.00" d=" M 1021.61 521.51 C 1022.08 520.48 1022.77 519.57 1023.52 518.72 C 1024.33 533.06 1028.32 547.28 1026.65 561.71 C 1025.19 557.03 1024.61 552.15 1023.89 547.32 C 1019.41 547.38 1014.93 547.28 1010.46 547.26 C 1008.08 552.08 1005.25 556.66 1002.13 561.03 C 1002.53 557.66 1004.19 554.65 1005.60 551.62 C 1010.51 541.36 1016.58 531.71 1021.61 521.51 M 1010.97 545.34 C 1015.47 545.38 1019.98 545.36 1024.49 545.36 C 1023.65 538.35 1023.15 531.30 1022.09 524.32 C 1018.16 531.20 1014.44 538.21 1010.97 545.34 Z" />
<path fill="#013112" opacity="1.00" d=" M 1112.64 533.27 C 1110.11 527.46 1114.30 520.79 1120.05 519.03 C 1125.46 517.06 1130.57 520.11 1134.52 523.55 C 1132.53 523.47 1130.62 522.96 1128.85 522.10 C 1127.20 521.57 1125.41 521.45 1123.97 520.46 C 1118.09 520.04 1112.84 526.07 1114.95 531.76 C 1118.45 537.05 1125.45 538.76 1128.61 544.35 C 1130.59 550.35 1126.48 556.56 1121.12 559.12 C 1120.08 559.42 1119.07 559.78 1118.09 560.20 C 1116.33 560.30 1114.58 560.32 1112.85 560.32 C 1109.69 558.90 1107.07 556.61 1104.56 554.28 C 1109.43 554.05 1113.12 559.56 1118.13 557.81 C 1123.19 556.91 1126.42 551.92 1127.02 547.10 C 1124.17 540.72 1116.52 538.78 1112.64 533.27 Z" />
<path fill="#013112" opacity="1.00" d=" M 812.20 519.41 C 812.46 519.85 813.00 520.72 813.27 521.16 C 810.92 533.52 807.66 545.73 805.94 558.19 C 805.50 558.42 804.62 558.87 804.18 559.09 C 804.10 558.75 803.94 558.08 803.85 557.74 C 805.90 544.85 808.49 531.95 812.20 519.41 Z" />
<path fill="#013112" opacity="1.00" d=" M 1046.11 520.01 C 1053.18 519.32 1060.33 519.28 1067.39 520.07 C 1064.08 520.94 1060.64 520.97 1057.25 521.15 C 1057.19 521.43 1057.07 522.00 1057.01 522.28 C 1054.18 535.36 1052.90 548.98 1047.52 561.36 C 1048.56 547.78 1052.63 534.71 1055.11 521.38 C 1053.14 521.38 1051.18 521.46 1049.23 521.35 C 1048.45 521.02 1046.89 520.34 1046.11 520.01 Z" />
</g>
<g id="#073617ff">
<path fill="#073617" opacity="1.00" d=" M 582.84 518.54 C 584.96 518.43 587.08 518.43 589.22 518.49 C 591.96 519.90 594.36 521.86 596.85 523.67 C 594.78 523.50 592.78 522.98 590.89 522.17 C 589.91 521.72 588.91 521.34 587.90 521.03 C 586.59 520.74 585.29 520.50 583.99 520.30 C 579.58 522.10 575.12 526.68 577.18 531.80 C 580.11 535.91 585.05 537.84 588.53 541.41 C 590.01 542.93 591.84 544.63 591.47 546.99 C 591.56 552.33 587.94 556.97 583.29 559.23 C 580.59 560.19 577.73 560.53 574.87 560.30 C 571.49 558.79 568.56 556.33 566.83 553.04 C 567.31 553.33 568.26 553.91 568.73 554.20 C 571.16 555.40 573.52 556.75 576.04 557.75 C 578.07 558.92 580.27 557.85 582.34 557.39 C 586.33 555.15 589.77 550.76 588.87 545.96 C 585.71 541.45 580.57 539.03 576.62 535.35 C 574.62 533.48 573.49 530.68 574.14 527.96 C 575.18 523.57 578.82 520.29 582.84 518.54 Z" />
<path fill="#073617" opacity="1.00" d=" M 748.12 520.01 C 752.16 517.69 758.51 517.32 761.29 521.73 C 764.46 527.10 762.79 533.69 761.62 539.43 C 759.82 546.86 757.50 555.38 750.41 559.48 C 749.63 559.02 748.87 558.56 748.11 558.12 C 754.97 556.10 757.02 548.25 758.78 542.17 C 759.89 536.05 762.21 529.31 759.41 523.34 C 757.39 519.30 752.00 519.85 748.58 521.57 C 743.91 525.58 741.99 531.68 740.68 537.48 C 739.38 542.72 738.27 548.25 739.43 553.62 C 739.92 555.79 741.65 557.24 743.46 558.35 C 745.57 558.03 747.54 558.48 748.99 560.14 C 746.94 560.26 744.89 560.32 742.85 560.34 C 740.91 559.29 738.63 558.31 737.88 556.04 C 735.55 550.02 737.07 543.39 738.34 537.30 C 739.99 530.88 742.24 523.79 748.12 520.01 Z" />
<path fill="#073617" opacity="1.00" d=" M 677.47 519.47 C 678.95 519.39 680.45 519.34 681.87 518.80 C 682.69 518.80 684.32 518.80 685.14 518.80 C 687.03 519.33 689.00 519.51 690.91 519.98 C 693.96 521.33 695.89 524.62 695.99 527.91 C 696.44 534.85 694.64 541.72 692.23 548.18 C 690.44 552.71 687.27 557.36 682.28 558.64 C 677.75 558.90 673.14 558.22 668.68 559.29 C 671.51 545.99 673.88 532.59 677.47 519.47 M 678.29 523.88 C 675.79 535.14 673.58 546.48 671.12 557.75 C 676.89 557.55 684.21 558.37 687.82 552.73 C 692.02 545.61 693.61 537.16 693.91 528.98 C 694.35 525.64 691.94 523.18 689.43 521.45 C 687.61 521.40 685.80 521.31 683.99 521.14 C 682.70 520.66 681.38 520.39 680.02 520.34 C 679.39 521.48 678.53 522.56 678.29 523.88 Z" />
</g>
<g id="#063517ff">
<path fill="#063517" opacity="1.00" d=" M 605.84 519.79 C 614.97 519.12 624.18 519.10 633.31 519.76 C 631.88 520.23 630.41 520.55 628.96 520.88 C 626.28 521.74 623.42 521.28 620.67 521.39 C 617.22 534.50 616.01 548.21 611.06 560.91 C 610.68 555.84 611.87 550.86 612.85 545.93 C 614.63 537.76 616.65 529.64 618.11 521.40 C 615.14 521.27 612.04 521.78 609.18 520.73 C 608.05 520.42 606.94 520.12 605.84 519.79 Z" />
</g>
<g id="#446751ff">
<path fill="#446751" opacity="1.00" d=" M 812.06 519.19 C 814.65 519.63 817.93 517.87 820.05 519.30 C 820.14 519.80 820.31 520.80 820.40 521.30 C 818.01 521.25 815.64 521.23 813.27 521.16 C 813.00 520.72 812.46 519.85 812.20 519.41 L 812.06 519.19 Z" />
</g>
<g id="#0b391bff">
<path fill="#0b391b" opacity="1.00" d=" M 847.35 519.39 C 853.79 519.36 860.23 519.35 866.68 519.39 C 866.35 519.89 865.71 520.90 865.38 521.41 C 859.95 521.35 854.53 521.40 849.11 521.37 C 847.70 526.68 846.54 532.06 845.55 537.46 C 849.73 537.37 853.91 537.75 857.97 538.80 C 854.14 540.06 849.94 539.13 846.06 540.22 C 844.40 540.05 844.54 541.95 844.19 542.99 C 843.37 547.78 842.14 552.50 841.42 557.32 C 846.45 557.36 851.48 557.37 856.51 557.53 L 856.50 558.51 C 857.10 558.48 858.32 558.41 858.92 558.38 C 858.89 558.61 858.84 559.07 858.81 559.30 C 852.06 559.39 845.31 559.35 838.56 559.37 C 841.22 545.99 843.58 532.52 847.35 519.39 Z" />
<path fill="#0b391b" opacity="1.00" d=" M 1082.59 519.42 C 1085.35 519.08 1088.70 520.21 1091.01 518.35 C 1094.39 520.55 1099.16 518.72 1103.08 519.74 C 1101.68 520.13 1100.27 520.53 1098.98 521.18 C 1094.05 521.47 1089.11 521.38 1084.19 521.35 C 1083.13 526.75 1081.88 532.10 1080.83 537.50 C 1084.87 537.51 1088.91 537.53 1092.95 537.46 C 1092.78 537.97 1092.44 539.00 1092.27 539.52 C 1088.30 539.76 1084.32 539.70 1080.36 539.61 C 1078.96 545.47 1077.73 551.37 1076.70 557.31 C 1082.16 557.42 1087.65 557.18 1093.11 557.82 C 1093.33 558.19 1093.77 558.92 1093.98 559.28 C 1087.25 559.38 1080.52 559.40 1073.79 559.32 C 1076.66 546.01 1078.87 532.54 1082.59 519.42 Z" />
</g>
<g id="#073618ff">
<path fill="#073618" opacity="1.00" d=" M 913.73 519.47 C 918.12 519.34 922.63 518.89 926.96 519.93 C 930.93 521.62 932.33 526.55 931.30 530.49 C 930.51 535.46 927.24 540.45 922.20 541.84 C 918.62 543.00 914.88 543.60 911.12 543.38 C 909.71 549.34 908.58 555.41 906.22 561.09 C 906.54 546.94 911.36 533.35 913.73 519.47 M 915.93 521.24 C 913.61 527.92 912.39 534.92 911.25 541.88 C 914.90 541.57 918.59 541.24 922.13 540.19 C 924.43 538.90 926.61 537.18 927.66 534.67 C 929.75 530.41 930.40 523.90 925.43 521.39 C 922.26 521.15 919.10 521.13 915.93 521.24 Z" />
</g>
<g id="#8ba193ff">
<path fill="#8ba193" opacity="1.00" d=" M 1041.79 519.58 C 1046.81 518.40 1052.01 519.93 1057.00 518.52 C 1061.67 519.84 1066.54 518.46 1071.28 519.38 C 1067.38 522.79 1061.68 521.11 1057.01 522.28 C 1057.07 522.00 1057.19 521.43 1057.25 521.15 C 1060.64 520.97 1064.08 520.94 1067.39 520.07 C 1060.33 519.28 1053.18 519.32 1046.11 520.01 C 1046.89 520.34 1048.45 521.02 1049.23 521.35 C 1046.56 522.02 1044.03 520.94 1041.79 519.58 Z" />
</g>
<g id="#285136ff">
<path fill="#285136" opacity="1.00" d=" M 803.69 557.09 L 803.85 557.74 C 803.94 558.08 804.10 558.75 804.18 559.09 C 804.62 558.87 805.50 558.42 805.94 558.19 C 808.05 557.51 810.28 557.52 812.49 557.53 C 813.89 557.81 815.30 558.12 816.73 558.38 C 812.61 560.55 807.58 558.91 803.09 559.39 C 803.24 558.82 803.54 557.67 803.69 557.09 Z" />
</g>
<g id="#6a8674ff">
<path fill="#6a8674" opacity="1.00" d=" M 668.68 559.29 C 673.14 558.22 677.75 558.90 682.28 558.64 C 678.43 560.59 673.72 558.95 669.58 560.14 L 668.68 559.29 Z" />
</g>
</svg>
